<svg width="68" height="64" viewBox="0 0 68 64" fill="none" xmlns="http://www.w3.org/2000/svg">
<path d="M11.333 29.3947L11.333 34.6053L15.5277 38.8L20.7383 38.8L24.933 34.6053L24.933 29.3947L20.7383 25.2L15.5277 25.2L11.333 29.3947ZM20.8038 33.8843L18.1166 36.5715L15.4294 33.8843C14.4135 32.8684 14.4135 31.1971 15.4294 30.1812L18.1166 27.494L20.8038 30.1812C21.8198 31.1971 21.8198 32.8357 20.8038 33.8843Z" fill="#E9F5DB"/>
<path d="M56.667 55.0053L56.667 49.7947L52.4723 45.6L47.2617 45.6L43.067 49.7947L43.067 55.0053L47.2617 59.2L52.4723 59.2L56.667 55.0053ZM47.1962 50.5157L49.8834 47.8284L52.5706 50.5157C53.5865 51.5316 53.5865 53.2029 52.5706 54.2188L49.8834 56.906L47.1961 54.2188C46.1802 53.2029 46.1802 51.5643 47.1962 50.5157Z" fill="#87986A"/>
<path d="M18.1338 45.9386L18.1338 40.728L13.9391 36.5333L8.72849 36.5333L4.53379 40.728L4.53379 45.9386L8.72849 50.1333L13.9391 50.1333L18.1338 45.9386ZM8.66295 41.449L11.3502 38.7618L14.0374 41.449C15.0533 42.4649 15.0533 44.1362 14.0374 45.1521L11.3502 47.8393L8.66295 45.1521C7.64704 44.1362 7.64704 42.4977 8.66295 41.449Z" fill="#97A97C"/>
<path d="M13.5996 34.6053L13.5996 29.3947L9.40491 25.2L4.19431 25.2L-0.000390016 29.3947L-0.000391155 34.6053L4.19431 38.8L9.40491 38.8L13.5996 34.6053ZM4.12877 30.1157L6.816 27.4284L9.50322 30.1157C10.5191 31.1316 10.5191 32.8029 9.50322 33.8188L6.816 36.506L4.12877 33.8188C3.11286 32.8029 3.11286 31.1643 4.12877 30.1157Z" fill="#97A97C"/>
<path d="M24.9336 14.2053L24.9336 8.99471L20.7389 4.8L15.5283 4.8L11.3336 8.9947L11.3336 14.2053L15.5283 18.4L20.7389 18.4L24.9336 14.2053ZM15.4628 9.71566L18.15 7.02844L20.8372 9.71566C21.8531 10.7316 21.8531 12.4029 20.8372 13.4188L18.15 16.106L15.4628 13.4188C14.4468 12.4029 14.4468 10.7643 15.4628 9.71566Z" fill="#97A97C"/>
<path d="M18.1338 23.272L18.1338 18.0614L13.9391 13.8667L8.72849 13.8667L4.53379 18.0614L4.53379 23.272L8.72849 27.4667L13.9391 27.4667L18.1338 23.272ZM8.66295 18.7823L11.3502 16.0951L14.0374 18.7823C15.0533 19.7982 15.0533 21.4696 14.0374 22.4855L11.3502 25.1727L8.66295 22.4855C7.64704 21.4696 7.64704 19.831 8.66295 18.7823Z" fill="#97A97C"/>
<path d="M22.667 29.3947L22.667 34.6053L26.8617 38.8L32.0723 38.8L36.267 34.6053L36.267 29.3947L32.0723 25.2L26.8617 25.2L22.667 29.3947ZM32.1378 33.8843L29.4506 36.5715L26.7634 33.8843C25.7475 32.8684 25.7475 31.1971 26.7634 30.1812L29.4506 27.494L32.1378 30.1812C33.1537 31.1971 33.1537 32.8357 32.1378 33.8843Z" fill="#E9F5DB"/>
<path d="M63.4668 23.272L63.4668 18.0614L59.2721 13.8667L54.0615 13.8667L49.8668 18.0614L49.8668 23.272L54.0615 27.4667L59.2721 27.4667L63.4668 23.272ZM53.996 18.7823L56.6832 16.0951L59.3704 18.7823C60.3863 19.7982 60.3863 21.4696 59.3704 22.4855L56.6832 25.1727L53.996 22.4855C52.9801 21.4696 52.9801 19.831 53.996 18.7823Z" fill="#CFE1B9"/>
<path d="M47.5996 34.6053L47.5996 29.3947L43.4049 25.2L38.1943 25.2L33.9996 29.3947L33.9996 34.6053L38.1943 38.8L43.4049 38.8L47.5996 34.6053ZM38.1288 30.1157L40.816 27.4284L43.5032 30.1157C44.5191 31.1316 44.5191 32.8029 43.5032 33.8188L40.816 36.506L38.1288 33.8188C37.1129 32.8029 37.1129 31.1643 38.1288 30.1157Z" fill="#CFE1B9"/>
<path d="M56.667 14.2053L56.667 8.99471L52.4723 4.8L47.2617 4.8L43.067 8.9947L43.067 14.2053L47.2617 18.4L52.4723 18.4L56.667 14.2053ZM47.1962 9.71566L49.8834 7.02844L52.5706 9.71566C53.5865 10.7316 53.5865 12.4029 52.5706 13.4188L49.8834 16.106L47.1961 13.4188C46.1802 12.4029 46.1802 10.7643 47.1962 9.71566Z" fill="#CFE1B9"/>
<path d="M47.5996 59.5386L47.5996 54.328L43.4049 50.1333L38.1943 50.1333L33.9996 54.328L33.9996 59.5386L38.1943 63.7333L43.4049 63.7333L47.5996 59.5386ZM38.1288 55.049L40.816 52.3618L43.5032 55.049C44.5191 56.0649 44.5191 57.7362 43.5032 58.7521L40.816 61.4394L38.1288 58.7521C37.1129 57.7362 37.1129 56.0977 38.1288 55.049Z" fill="#87986A"/>
<path d="M36.2666 59.5386L36.2666 54.328L32.0719 50.1333L26.8613 50.1333L22.6666 54.328L22.6666 59.5386L26.8613 63.7333L32.0719 63.7333L36.2666 59.5386ZM26.7958 55.049L29.483 52.3618L32.1702 55.049C33.1861 56.0649 33.1861 57.7362 32.1702 58.7521L29.483 61.4394L26.7958 58.7521C25.7799 57.7362 25.7799 56.0977 26.7958 55.049Z" fill="#97A97C"/>
<path d="M27.2002 55.0053L27.2002 49.7947L23.0055 45.6L17.7949 45.6L13.6002 49.7947L13.6002 55.0053L17.7949 59.2L23.0055 59.2L27.2002 55.0053ZM17.7294 50.5157L20.4166 47.8284L23.1038 50.5157C24.1197 51.5316 24.1197 53.2029 23.1038 54.2188L20.4166 56.906L17.7294 54.2188C16.7134 53.2029 16.7135 51.5643 17.7294 50.5157Z" fill="#97A97C"/>
<path d="M36.2666 9.67197L36.2666 4.46137L32.0719 0.266662L26.8613 0.266661L22.6666 4.46136L22.6666 9.67196L26.8613 13.8667L32.0719 13.8667L36.2666 9.67197ZM26.7958 5.18232L29.483 2.4951L32.1702 5.18232C33.1861 6.19823 33.1861 7.86956 32.1702 8.88546L29.483 11.5727L26.7958 8.88546C25.7799 7.86956 25.7799 6.231 26.7958 5.18232Z" fill="#B5C99A"/>
<path d="M47.5996 9.67197L47.5996 4.46137L43.4049 0.266662L38.1943 0.266661L33.9996 4.46136L33.9996 9.67196L38.1943 13.8667L43.4049 13.8667L47.5996 9.67197ZM38.1288 5.18232L40.816 2.4951L43.5032 5.18232C44.5191 6.19823 44.5191 7.86956 43.5032 8.88546L40.816 11.5727L38.1288 8.88546C37.1129 7.86956 37.1129 6.231 38.1288 5.18232Z" fill="#B5C99A"/>
<path d="M58.9336 34.6053L58.9336 29.3947L54.7389 25.2L49.5283 25.2L45.3336 29.3947L45.3336 34.6053L49.5283 38.8L54.7389 38.8L58.9336 34.6053ZM49.4628 30.1157L52.15 27.4284L54.8372 30.1157C55.8531 31.1316 55.8531 32.8029 54.8372 33.8188L52.15 36.506L49.4628 33.8188C48.4468 32.8029 48.4468 31.1643 49.4628 30.1157Z" fill="#B5C99A"/>
<path d="M63.4668 45.9386L63.4668 40.728L59.2721 36.5333L54.0615 36.5333L49.8668 40.728L49.8668 45.9386L54.0615 50.1333L59.2721 50.1333L63.4668 45.9386ZM53.996 41.449L56.6832 38.7618L59.3704 41.449C60.3863 42.4649 60.3863 44.1362 59.3704 45.1521L56.6832 47.8393L53.996 45.1521C52.9801 44.1362 52.9801 42.4977 53.996 41.449Z" fill="#97A97C"/>
<path d="M68 34.6053L68 29.3947L63.8053 25.2L58.5947 25.2L54.4 29.3947L54.4 34.6053L58.5947 38.8L63.8053 38.8L68 34.6053ZM58.5292 30.1157L61.2164 27.4284L63.9036 30.1157C64.9195 31.1316 64.9195 32.8029 63.9036 33.8188L61.2164 36.506L58.5292 33.8188C57.5133 32.8029 57.5133 31.1643 58.5292 30.1157Z" fill="#B5C99A"/>
</svg>
